HIERARCHY
ROOT Hips
{
  OFFSET 1.44925e-005 102.336 -0.101585
  CHANNELS 6 Xposition Yposition Zposition Zrotation Xrotation Yrotation
  JOINT LeftUpLeg
  {
    OFFSET 8.9458 -8.66707 0.101652
    CHANNELS 3 Zrotation Xrotation Yrotation
    JOINT LeftLeg
    {
      OFFSET 0 -44.4227 1.3727
      CHANNELS 3 Zrotation Xrotation Yrotation
      JOINT LeftFoot
      {
        OFFSET -0.253549 -42.0924 -1.46059
        CHANNELS 3 Zrotation Xrotation Yrotation
        JOINT LeftToes
        {
          OFFSET -0.04 -4.41509 8.4991
          CHANNELS 3 Zrotation Xrotation Yrotation
          End Site
          {
            OFFSET 0.08 -0.047448 9.77979
          }
        }
      }
    }
  }
  JOINT Spine
  {
    OFFSET 0 11.8905 0
    CHANNELS 3 Zrotation Xrotation Yrotation
    JOINT Spine1
    {
      OFFSET 0 25.6574 0.127663
      CHANNELS 3 Zrotation Xrotation Yrotation
      JOINT RightShoulder
      {
        OFFSET -8.99 -0.362252 -0.22
        CHANNELS 3 Zrotation Xrotation Yrotation
        JOINT RightArm
        {
          OFFSET -10.2827 -0.00338 0.322123
          CHANNELS 3 Zrotation Xrotation Yrotation
          JOINT RightForeArm
          {
            OFFSET -26.364 0.099144 -1.42434
            CHANNELS 3 Zrotation Xrotation Yrotation
            JOINT RightHand
            {
              OFFSET -22.0324 0.085362 1.02216
              CHANNELS 3 Zrotation Xrotation Yrotation
              End Site
              {
                OFFSET -13.3284 -0.6 1.50291
              }
            }
          }
        }
      }
      JOINT LeftShoulder1
      {
        OFFSET 8.99 -0.362252 -0.22
        CHANNELS 3 Zrotation Xrotation Yrotation
        JOINT LeftArm
        {
          OFFSET 10.2827 -0.00337999 0.322123
          CHANNELS 3 Zrotation Xrotation Yrotation
          JOINT LeftForeArm
          {
            OFFSET 26.2597 0.099144 -1.42434
            CHANNELS 3 Zrotation Xrotation Yrotation
            JOINT LeftHand
            {
              OFFSET 22.0902 0.085362 1.02216
              CHANNELS 3 Zrotation Xrotation Yrotation
              End Site
              {
                OFFSET 13.419 -0.6 1.50291
              }
            }
          }
        }
      }
      JOINT Head
      {
        OFFSET 0 8.73416 0.011341
        CHANNELS 3 Zrotation Xrotation Yrotation
        End Site
        {
          OFFSET -0.29 12.7742 2.51395
        }
      }
    }
  }
  JOINT RightUpLeg
  {
    OFFSET -8.9458 -8.66707 0.101652
    CHANNELS 3 Zrotation Xrotation Yrotation
    JOINT RightLeg
    {
      OFFSET 0 -44.4227 1.3727
      CHANNELS 3 Zrotation Xrotation Yrotation
      JOINT RightFoot
      {
        OFFSET 0.253549 -42.0924 -1.46059
        CHANNELS 3 Zrotation Xrotation Yrotation
        JOINT RightToes
        {
          OFFSET 0.04 -4.41509 8.4991
          CHANNELS 3 Zrotation Xrotation Yrotation
          End Site
          {
            OFFSET -0.08 -0.137448 9.77979
          }
        }
      }
    }
  }
}
MOTION
Frames:	12
Frame Time:	0.0333333
78.8688 102.117 -1.1782 -5.57812 0.0467492 -90.5964 -1.7058 1.07141 0.222016 1.59039 13.2407 14.6026 -2.0573 -13.2565 -0.0360967 -1.33613e-009 8.75225e-006 -1.47416e-008 -0.441983 9.94965 -0.894081 2.05379 2.50974 -1.22459 34.2899 1.78159 0.385412 45.4049 -20.9634 15.9198 11.1644 45.1839 1.66229 -19.585 8.28243 4.50037 -41.2316 3.19726 -3.2208 -29.5872 -15.7692 -6.54532 -8.84911 41.6745 -8.32462 5.82328 9.61819 -0.917488 0.954747 -7.0114 -2.21852 0.120817 1.05408 -4.59309 1.54839 12.1446 -18.7995 2.76508 -12.8338 -0.086268 0.0462048 0.000530889 0.662642 
78.8422 102.118 -1.18686 -5.55805 0.041094 -90.5932 -1.70602 1.06944 0.234532 1.58046 13.22 14.5954 -2.04198 -13.2552 -0.0360964 -1.33613e-009 8.75225e-006 -1.47416e-008 -0.505688 9.90436 -0.893497 2.1664 2.5301 -1.24674 34.2042 1.78159 0.385412 45.4594 -21.0145 15.9374 11.1021 45.4778 1.69308 -19.3511 8.28814 4.59229 -41.2914 3.20312 -3.22081 -29.5568 -15.7342 -6.55249 -8.90144 41.6121 -8.27793 5.82328 9.61819 -0.917488 0.925675 -7.01188 -2.2201 0.120959 1.05612 -4.59191 1.54931 12.1283 -18.8239 2.7987 -12.8281 -0.086266 0.0462048 0.000530889 0.662642 
78.7947 102.123 -1.2074 -5.51817 0.0203215 -90.5794 -1.70615 1.05881 0.243849 1.57112 13.2136 14.5611 -2.03234 -13.2468 -0.0360952 -1.33613e-009 8.75225e-006 -1.47416e-008 -0.629971 9.84083 -0.895454 2.32051 2.52758 -1.2891 34.1149 1.78159 0.385346 45.5236 -21.1252 15.966 11.0293 45.8261 1.70706 -19.0445 8.31711 4.581 -41.3803 3.21199 -3.22084 -29.4703 -15.5917 -6.51975 -8.91074 41.3978 -8.31717 5.82328 9.61819 -0.917488 0.899618 -6.93756 -2.23399 0.122629 1.0779 -4.58455 1.54307 12.0521 -18.8896 2.71283 -12.7913 -0.0862534 0.0462048 0.000530889 0.662642 
78.7471 102.129 -1.22805 -5.47056 0.000340304 -90.5747 -1.70588 1.04383 0.24688 1.56908 13.2002 14.5403 -2.0491 -13.2306 -0.0360928 -1.33613e-009 8.75225e-006 -1.47416e-008 -0.695752 9.80959 -0.910343 2.34904 2.47365 -1.31537 34.1361 1.78159 0.382629 45.5045 -21.1765 15.9768 11.0408 45.8168 1.6779 -18.9749 8.3291 4.54411 -41.3737 3.21388 -3.22084 -29.4076 -15.3228 -6.41242 -8.78361 41.0153 -8.55639 5.82328 9.61819 -0.917488 0.931392 -6.78827 -2.27547 0.126113 1.09618 -4.56639 1.53083 11.9679 -18.9204 2.63404 -12.775 -0.0861009 0.0462048 0.000530889 0.662642 
78.7042 102.135 -1.23945 -5.41454 -0.0030481 -90.6097 -1.70176 1.0418 0.263445 1.5638 13.1416 14.557 -2.0612 -13.2155 -0.0360906 -1.33613e-009 8.75225e-006 -1.47416e-008 -0.693052 9.79627 -0.925485 2.29825 2.41703 -1.32108 34.1915 1.78159 0.373591 45.4447 -21.1225 15.9679 11.0982 45.609 1.65894 -19.1077 8.29008 4.71586 -41.3012 3.21392 -3.22099 -29.3986 -15.0602 -6.2833 -8.60474 40.6364 -8.85523 5.82328 9.61819 -0.917488 0.995034 -6.67879 -2.32369 0.136527 1.08863 -4.53832 1.51655 11.9134 -18.8859 2.67485 -12.7934 -0.0853579 0.0462048 0.000530889 0.662642 
78.6609 102.144 -1.24484 -5.34153 0.00482203 -90.6581 -1.68732 1.03941 0.292722 1.55147 13.0458 14.5807 -2.04299 -13.1955 -0.0360876 -1.33613e-009 8.75225e-006 -1.47416e-008 -0.71872 9.76082 -0.932006 2.3286 2.39748 -1.33617 34.1524 1.78159 0.370299 45.456 -21.0867 15.9591 11.0972 45.6022 1.6802 -19.1727 8.25096 4.9247 -41.3004 3.21296 -3.22138 -29.3685 -14.9546 -6.21228 -8.5291 40.4729 -8.98167 5.82328 9.61819 -0.917488 1.01461 -6.68248 -2.34855 0.156619 1.06002 -4.50453 1.50321 11.8588 -18.8736 2.69616 -12.7778 -0.0844135 0.0462048 0.000530889 0.662642 
78.6161 102.156 -1.25187 -5.25206 0.0116856 -90.6799 -1.67191 1.01576 0.30976 1.54249 12.9517 14.5894 -2.01499 -13.1677 -0.0360835 -1.33613e-009 8.75225e-006 -1.47416e-008 -0.799075 9.70697 -0.938629 2.45052 2.38308 -1.37253 34.0447 1.78159 0.375812 45.5484 -21.1882 15.9618 11.036 45.8023 1.68464 -19.0668 8.27821 4.81374 -41.3777 3.21201 -3.22192 -29.2876 -15.0113 -6.20946 -8.58418 40.5432 -8.89947 5.82328 9.61819 -0.917488 0.957766 -6.73925 -2.35893 0.185618 1.01971 -4.46724 1.48819 11.7857 -18.941 2.60302 -12.7056 -0.0833517 0.0462048 0.000530889 0.662642 
78.5753 102.164 -1.2593 -5.16198 0.0170215 -90.6858 -1.65918 0.973495 0.311767 1.53683 12.8869 14.6025 -1.99467 -13.1567 -0.0360819 -1.33613e-009 8.75225e-006 -1.47416e-008 -0.867501 9.66897 -0.952063 2.55088 2.34429 -1.40926 33.9736 1.78159 0.384133 45.6463 -21.3622 15.9775 11.0126 45.8975 1.61198 -18.9724 8.33715 4.4947 -41.4154 3.21212 -3.22253 -29.2365 -15.1392 -6.22255 -8.65472 40.6891 -8.77829 5.82328 9.61819 -0.917488 0.865636 -6.76896 -2.3802 0.211342 0.968846 -4.43118 1.47202 11.7313 -18.9961 2.55629 -12.6622 -0.0822924 0.0462048 0.000530889 0.662642 
78.5409 102.164 -1.25971 -5.08743 0.0203436 -90.7145 -1.65066 0.931825 0.32266 1.51934 12.8532 14.6323 -1.96652 -13.1789 -0.0360852 -1.33613e-009 8.75225e-006 -1.47416e-008 -0.914781 9.65079 -0.959317 2.62117 2.31977 -1.43247 33.9301 1.78159 0.393388 45.7327 -21.4839 16.0103 11.0578 45.8502 1.4903 -19.0785 8.34137 4.40891 -41.411 3.21437 -3.22312 -29.2457 -15.2703 -6.22152 -8.65572 40.769 -8.74884 5.82328 9.61819 -0.917488 0.801219 -6.79058 -2.39114 0.214027 0.914165 -4.41048 1.46363 11.7218 -18.942 2.66212 -12.701 -0.0813432 0.0462048 0.000530889 0.662642 
78.5097 102.165 -1.25183 -5.03048 0.0144977 -90.7661 -1.65552 0.903085 0.34097 1.49492 12.8338 14.664 -1.93574 -13.2046 -0.036089 -1.33613e-009 8.75225e-006 -1.47416e-008 -0.994147 9.63012 -0.946045 2.73198 2.34567 -1.44723 33.8541 1.78159 0.405168 45.8358 -21.5671 16.045 11.0819 45.9356 1.4052 -19.3144 8.28871 4.60902 -41.4867 3.22201 -3.22363 -29.2181 -15.3501 -6.22961 -8.6314 40.7519 -8.77174 5.82328 9.61819 -0.917488 0.786075 -6.85361 -2.35839 0.191311 0.870573 -4.41358 1.46745 11.7248 -18.8406 2.73825 -12.7508 -0.0805721 0.0462048 0.000530889 0.662642 
78.4782 102.166 -1.24208 -4.9811 0.00571568 -90.8141 -1.67465 0.884891 0.337146 1.49259 12.8117 14.7009 -1.94242 -13.2014 -0.0360885 -1.33613e-009 8.75225e-006 -1.47416e-008 -1.08297 9.60292 -0.918011 2.84425 2.38573 -1.44944 33.7939 1.78158 0.413649 45.9137 -21.6979 16.0386 11.0108 46.2449 1.4077 -19.4282 8.25398 4.76131 -41.6549 3.23512 -3.22395 -29.0993 -15.3204 -6.27399 -8.65805 40.6927 -8.75599 5.82328 9.61819 -0.917488 0.784909 -6.91851 -2.31415 0.17096 0.842189 -4.42113 1.4733 11.7026 -18.7999 2.64531 -12.7447 -0.080049 0.0462048 0.000530889 0.662642 
78.4447 102.166 -1.23449 -4.93035 0.0135932 -90.8598 -1.68623 0.866692 0.316865 1.51366 12.7921 14.7629 -1.98788 -13.1941 -0.0360874 -1.33613e-009 8.75225e-006 -1.47416e-008 -1.10639 9.57649 -0.892586 2.863 2.39963 -1.43071 33.8324 1.78158 0.411295 45.8975 -21.843 15.9801 10.9054 46.5196 1.46282 -19.3049 8.26385 4.76903 -41.779 3.24317 -3.22397 -28.986 -15.176 -6.34331 -8.72698 40.6519 -8.7028 5.82328 9.61819 -0.917488 0.767108 -6.8926 -2.3036 0.177465 0.815121 -4.40602 1.46984 11.6727 -18.791 2.55564 -12.7332 -0.0798813 0.0462048 0.000530889 0.662642 
